# xmcd CD database file
#
# Track frame offsets:
#	182
#	19427
#	41352
#	58730
#	79217
#	104640
#	122502
#	139875
#	161945
#	185395
#	208317
#	226575
#	246220
#	261590
#
# Disc length: 3755 seconds
#
# Revision: 0
# Processed by: cddbd v1.5.1PL0 Copyright (c) Steve Scherf et al.
# Submitted via: CDex 1.51
#
DISCID=cf0ea90e
DTITLE=Dee Dee Bridgewater - Greatest Hits
DYEAR=1994
DGENRE=Jazz
TTITLE0=Angels Of The Night
TTITLE1=Mr. Guitar Man
TTITLE2=Place In The Sun
TTITLE3=Heartache Caravan
TTITLE4=The World Turns Araund
TTITLE5=Can't We Try Love Again
TTITLE6=Wall Of Love
TTITLE7=Just Tell Me Why
TTITLE8=Big Teddy
TTITLE9=Till The Next...Somewhere
TTITLE10=Sunset And Blue
TTITLE11=Just A Feeling
TTITLE12=I Go My Way
TTITLE13=Love Takes Chances
EXTD=YEAR: 1994
EXTT0=
EXTT1=
EXTT2=
EXTT3=
EXTT4=
EXTT5=
EXTT6=
EXTT7=
EXTT8=
EXTT9=
EXTT10=
EXTT11=
EXTT12=
EXTT13=
PLAYORDER=
